<svg xmlns="http://www.w3.org/2000/svg" viewBox="0 0 1200 650" width="1200" height="650">
  <defs>
    <!-- Arrow markers -->
    <marker id="arrow" markerWidth="10" markerHeight="7" refX="10" refY="3.5" orient="auto">
      <polygon points="0 0, 10 3.5, 0 7" fill="#64748B"/>
    </marker>
    <marker id="arrow-violet" markerWidth="10" markerHeight="7" refX="10" refY="3.5" orient="auto">
      <polygon points="0 0, 10 3.5, 0 7" fill="#7C3AED"/>
    </marker>
    <!-- Drop shadow -->
    <filter id="shadow" x="-2%" y="-2%" width="104%" height="104%">
      <feDropShadow dx="0" dy="2" stdDeviation="3" flood-opacity="0.10"/>
    </filter>
    <!-- Sun gradient -->
    <radialGradient id="sunGlow" cx="50%" cy="50%" r="50%">
      <stop offset="0%" stop-color="#FDE68A"/>
      <stop offset="60%" stop-color="#F59E0B"/>
      <stop offset="100%" stop-color="#D97706"/>
    </radialGradient>
    <!-- Solar panel gradient -->
    <linearGradient id="panelGrad" x1="0" y1="0" x2="1" y2="0">
      <stop offset="0%" stop-color="#B45309"/>
      <stop offset="100%" stop-color="#D97706"/>
    </linearGradient>
    <!-- Bus gradient -->
    <linearGradient id="busGrad" x1="0" y1="0" x2="0" y2="1">
      <stop offset="0%" stop-color="#2563EB"/>
      <stop offset="100%" stop-color="#1D4ED8"/>
    </linearGradient>
    <!-- Beam gradient -->
    <linearGradient id="beamGrad" x1="0" y1="0" x2="0" y2="1">
      <stop offset="0%" stop-color="#DC2626" stop-opacity="0.15"/>
      <stop offset="100%" stop-color="#DC2626" stop-opacity="0.03"/>
    </linearGradient>
  </defs>

  <!-- Background -->
  <rect width="1200" height="650" fill="#F8FAFC"/>

  <!-- Title bar -->
  <rect x="0" y="0" width="1200" height="48" fill="#1E293B"/>
  <text x="28" y="30" font-family="'Segoe UI', Helvetica, Arial, sans-serif" font-size="17" font-weight="700" fill="#FFFFFF">Shine Harvest -- System Architecture Overview</text>
  <text x="1172" y="22" font-family="'Segoe UI', Helvetica, Arial, sans-serif" font-size="10" fill="#94A3B8" text-anchor="end">SH-ARCH-001 Rev B</text>
  <text x="1172" y="38" font-family="'Segoe UI', Helvetica, Arial, sans-serif" font-size="9" fill="#64748B" text-anchor="end">10-Repo Physical Truth Chain</text>

  <!-- ================================================================ -->
  <!-- MAIN VERTICAL FLOW (CENTER)                                      -->
  <!-- ================================================================ -->

  <!-- ==================== LEVEL 1: SOLAR GENERATION ================== -->
  <!-- Solar panel icon + sun rays -->
  <g transform="translate(440, 60)">
    <!-- Sun -->
    <circle cx="0" cy="20" r="14" fill="url(#sunGlow)"/>
    <line x1="0" y1="2" x2="0" y2="-4" stroke="#F59E0B" stroke-width="1.5" stroke-linecap="round"/>
    <line x1="0" y1="38" x2="0" y2="44" stroke="#F59E0B" stroke-width="1.5" stroke-linecap="round"/>
    <line x1="-18" y1="20" x2="-24" y2="20" stroke="#F59E0B" stroke-width="1.5" stroke-linecap="round"/>
    <line x1="18" y1="20" x2="24" y2="20" stroke="#F59E0B" stroke-width="1.5" stroke-linecap="round"/>
    <line x1="-12" y1="8" x2="-16" y2="4" stroke="#F59E0B" stroke-width="1" stroke-linecap="round"/>
    <line x1="12" y1="8" x2="16" y2="4" stroke="#F59E0B" stroke-width="1" stroke-linecap="round"/>
    <line x1="-12" y1="32" x2="-16" y2="36" stroke="#F59E0B" stroke-width="1" stroke-linecap="round"/>
    <line x1="12" y1="32" x2="16" y2="36" stroke="#F59E0B" stroke-width="1" stroke-linecap="round"/>
    <!-- Sun rays hitting panel -->
    <line x1="20" y1="28" x2="46" y2="38" stroke="#FDE68A" stroke-width="0.8" stroke-dasharray="3,2" opacity="0.6"/>
    <line x1="22" y1="20" x2="46" y2="20" stroke="#FDE68A" stroke-width="0.8" stroke-dasharray="3,2" opacity="0.6"/>
    <line x1="20" y1="12" x2="46" y2="4" stroke="#FDE68A" stroke-width="0.8" stroke-dasharray="3,2" opacity="0.6"/>
  </g>

  <!-- Solar panel -->
  <g transform="translate(490, 62)">
    <rect x="0" y="0" width="44" height="36" rx="2" fill="url(#panelGrad)" stroke="#92400E" stroke-width="1"/>
    <!-- Cell grid -->
    <line x1="11" y1="0" x2="11" y2="36" stroke="#92400E" stroke-width="0.5" opacity="0.5"/>
    <line x1="22" y1="0" x2="22" y2="36" stroke="#92400E" stroke-width="0.5" opacity="0.5"/>
    <line x1="33" y1="0" x2="33" y2="36" stroke="#92400E" stroke-width="0.5" opacity="0.5"/>
    <line x1="0" y1="9" x2="44" y2="9" stroke="#92400E" stroke-width="0.5" opacity="0.5"/>
    <line x1="0" y1="18" x2="44" y2="18" stroke="#92400E" stroke-width="0.5" opacity="0.5"/>
    <line x1="0" y1="27" x2="44" y2="27" stroke="#92400E" stroke-width="0.5" opacity="0.5"/>
  </g>

  <!-- Level 1 box -->
  <rect x="370" y="56" width="280" height="50" rx="10" fill="#D97706" filter="url(#shadow)" opacity="0.85"/>
  <text x="600" y="76" font-family="'Segoe UI', Helvetica, Arial, sans-serif" font-size="13" font-weight="700" fill="#FFFFFF" text-anchor="middle">SOLAR GENERATION</text>
  <text x="600" y="94" font-family="'Segoe UI', Helvetica, Arial, sans-serif" font-size="9" fill="rgba(255,255,255,0.85)" text-anchor="middle">sh-solar-generation | Collection -- Generation State -- Eclipse -- Output</text>

  <!-- Arrow 1 with ICD label -->
  <line x1="510" y1="106" x2="510" y2="146" stroke="#64748B" stroke-width="2" marker-end="url(#arrow)"/>
  <rect x="520" y="118" width="130" height="16" rx="3" fill="#F1F5F9" stroke="#E2E8F0" stroke-width="0.5"/>
  <text x="585" y="130" font-family="'Segoe UI', monospace" font-size="8" fill="#94A3B8" text-anchor="middle">SH-ICD-SOL-ORB-001</text>

  <!-- ==================== LEVEL 2: ORBITAL PLATFORM ================== -->
  <!-- Satellite bus icon -->
  <g transform="translate(430, 156)">
    <!-- Bus body -->
    <rect x="0" y="4" width="20" height="14" rx="3" fill="url(#busGrad)" stroke="#1E40AF" stroke-width="1"/>
    <!-- Left panel wing -->
    <rect x="-30" y="2" width="28" height="18" rx="1" fill="#1D4ED8" stroke="#60A5FA" stroke-width="0.5"/>
    <line x1="-23" y1="2" x2="-23" y2="20" stroke="#60A5FA" stroke-width="0.3" opacity="0.6"/>
    <line x1="-16" y1="2" x2="-16" y2="20" stroke="#60A5FA" stroke-width="0.3" opacity="0.6"/>
    <line x1="-9" y1="2" x2="-9" y2="20" stroke="#60A5FA" stroke-width="0.3" opacity="0.6"/>
    <!-- Right panel wing -->
    <rect x="22" y="2" width="28" height="18" rx="1" fill="#1D4ED8" stroke="#60A5FA" stroke-width="0.5"/>
    <line x1="29" y1="2" x2="29" y2="20" stroke="#60A5FA" stroke-width="0.3" opacity="0.6"/>
    <line x1="36" y1="2" x2="36" y2="20" stroke="#60A5FA" stroke-width="0.3" opacity="0.6"/>
    <line x1="43" y1="2" x2="43" y2="20" stroke="#60A5FA" stroke-width="0.3" opacity="0.6"/>
  </g>

  <!-- Level 2 box -->
  <rect x="370" y="152" width="280" height="50" rx="10" fill="#2563EB" filter="url(#shadow)"/>
  <text x="600" y="172" font-family="'Segoe UI', Helvetica, Arial, sans-serif" font-size="13" font-weight="700" fill="#FFFFFF" text-anchor="middle">ORBITAL PLATFORM</text>
  <text x="600" y="190" font-family="'Segoe UI', Helvetica, Arial, sans-serif" font-size="9" fill="rgba(255,255,255,0.85)" text-anchor="middle">sh-orbital-platform | Platform State -- DSA Swarm -- Availability</text>

  <!-- Arrow 2 with ICD label -->
  <line x1="510" y1="202" x2="510" y2="242" stroke="#64748B" stroke-width="2" marker-end="url(#arrow)"/>
  <rect x="520" y="214" width="130" height="16" rx="3" fill="#F1F5F9" stroke="#E2E8F0" stroke-width="0.5"/>
  <text x="585" y="226" font-family="'Segoe UI', monospace" font-size="8" fill="#94A3B8" text-anchor="middle">SH-ICD-ORB-BMC-001</text>

  <!-- ==================== LEVEL 3: BEAM CONTROL ====================== -->
  <!-- Phased array ellipse icon -->
  <g transform="translate(430, 252)">
    <ellipse cx="22" cy="12" rx="20" ry="10" fill="none" stroke="#DC2626" stroke-width="1.5"/>
    <ellipse cx="22" cy="12" rx="13" ry="6" fill="none" stroke="#DC2626" stroke-width="0.8" opacity="0.5"/>
    <ellipse cx="22" cy="12" rx="6" ry="3" fill="none" stroke="#DC2626" stroke-width="0.5" opacity="0.3"/>
    <circle cx="22" cy="12" r="2.5" fill="#DC2626"/>
  </g>

  <!-- Beam cone (going down) -->
  <path d="M 440 276 L 420 320 L 460 320 Z" fill="url(#beamGrad)" stroke="none"/>

  <!-- Level 3 box -->
  <rect x="370" y="248" width="280" height="50" rx="10" fill="#DC2626" filter="url(#shadow)"/>
  <text x="600" y="268" font-family="'Segoe UI', Helvetica, Arial, sans-serif" font-size="13" font-weight="700" fill="#FFFFFF" text-anchor="middle">BEAM CONTROL</text>
  <text x="600" y="286" font-family="'Segoe UI', Helvetica, Arial, sans-serif" font-size="9" fill="rgba(255,255,255,0.85)" text-anchor="middle">sh-beam-control | Phased Array -- Safety Interlocks -- 2.45 GHz</text>

  <!-- Arrow 3 with ICD label -->
  <line x1="510" y1="298" x2="510" y2="338" stroke="#64748B" stroke-width="2" marker-end="url(#arrow)"/>
  <rect x="520" y="310" width="130" height="16" rx="3" fill="#F1F5F9" stroke="#E2E8F0" stroke-width="0.5"/>
  <text x="585" y="322" font-family="'Segoe UI', monospace" font-size="8" fill="#94A3B8" text-anchor="middle">SH-ICD-BMC-GND-001</text>

  <!-- ==================== LEVEL 4: GROUND SEGMENT ==================== -->
  <!-- Rectenna mesh ellipse icon -->
  <g transform="translate(420, 348)">
    <ellipse cx="30" cy="12" rx="28" ry="10" fill="none" stroke="#059669" stroke-width="1.5"/>
    <!-- mesh dots -->
    <circle cx="14" cy="10" r="1.5" fill="#059669" opacity="0.4"/>
    <circle cx="22" cy="8" r="1.5" fill="#059669" opacity="0.4"/>
    <circle cx="30" cy="6" r="1.5" fill="#059669" opacity="0.4"/>
    <circle cx="38" cy="8" r="1.5" fill="#059669" opacity="0.4"/>
    <circle cx="46" cy="10" r="1.5" fill="#059669" opacity="0.4"/>
    <circle cx="18" cy="14" r="1.5" fill="#059669" opacity="0.4"/>
    <circle cx="30" cy="16" r="1.5" fill="#059669" opacity="0.4"/>
    <circle cx="42" cy="14" r="1.5" fill="#059669" opacity="0.4"/>
    <circle cx="26" cy="12" r="1" fill="#059669" opacity="0.3"/>
    <circle cx="34" cy="12" r="1" fill="#059669" opacity="0.3"/>
  </g>

  <!-- Level 4 box -->
  <rect x="370" y="344" width="280" height="50" rx="10" fill="#0D9488" filter="url(#shadow)"/>
  <text x="600" y="364" font-family="'Segoe UI', Helvetica, Arial, sans-serif" font-size="13" font-weight="700" fill="#FFFFFF" text-anchor="middle">GROUND SEGMENT</text>
  <text x="600" y="382" font-family="'Segoe UI', Helvetica, Arial, sans-serif" font-size="9" fill="rgba(255,255,255,0.85)" text-anchor="middle">sh-ground-segment | Rectenna -- Grid Interface -- Site Readiness</text>

  <!-- Arrow 4 with ICD label -->
  <line x1="510" y1="394" x2="510" y2="434" stroke="#64748B" stroke-width="2" marker-end="url(#arrow)"/>
  <rect x="520" y="406" width="130" height="16" rx="3" fill="#F1F5F9" stroke="#E2E8F0" stroke-width="0.5"/>
  <text x="585" y="418" font-family="'Segoe UI', monospace" font-size="8" fill="#94A3B8" text-anchor="middle">SH-ICD-GND-MKT-001</text>

  <!-- ==================== LEVEL 5: MARKET LAYER ====================== -->
  <!-- Transmission tower icon -->
  <g transform="translate(422, 442)">
    <polygon points="12,4 20,36 4,36" fill="none" stroke="#059669" stroke-width="1.5"/>
    <line x1="6" y1="14" x2="18" y2="14" stroke="#059669" stroke-width="0.8"/>
    <line x1="8" y1="22" x2="16" y2="22" stroke="#059669" stroke-width="0.8"/>
    <line x1="10" y1="30" x2="14" y2="30" stroke="#059669" stroke-width="0.8"/>
    <!-- Wires -->
    <line x1="12" y1="4" x2="0" y2="0" stroke="#059669" stroke-width="1"/>
    <line x1="12" y1="4" x2="24" y2="0" stroke="#059669" stroke-width="1"/>
  </g>
  <!-- Blockchain chain icon -->
  <g transform="translate(456, 450)">
    <rect x="0" y="4" width="12" height="10" rx="3" fill="none" stroke="#059669" stroke-width="1"/>
    <line x1="12" y1="9" x2="16" y2="9" stroke="#059669" stroke-width="1"/>
    <rect x="16" y="4" width="12" height="10" rx="3" fill="none" stroke="#059669" stroke-width="1"/>
    <line x1="28" y1="9" x2="32" y2="9" stroke="#059669" stroke-width="1"/>
    <rect x="32" y="4" width="12" height="10" rx="3" fill="none" stroke="#059669" stroke-width="1"/>
  </g>

  <!-- Level 5 box -->
  <rect x="370" y="440" width="280" height="50" rx="10" fill="#059669" filter="url(#shadow)"/>
  <text x="600" y="460" font-family="'Segoe UI', Helvetica, Arial, sans-serif" font-size="13" font-weight="700" fill="#FFFFFF" text-anchor="middle">MARKET LAYER</text>
  <text x="600" y="478" font-family="'Segoe UI', Helvetica, Arial, sans-serif" font-size="9" fill="rgba(255,255,255,0.85)" text-anchor="middle">sh-market-layer | Dispatch -- Settlement -- BC-DEM</text>

  <!-- Vertical "Physical Truth Chain" label -->
  <text x="354" y="310" font-family="'Segoe UI', Helvetica, Arial, sans-serif" font-size="10" fill="#94A3B8" text-anchor="end" transform="rotate(-90, 354, 310)">Physical Truth Chain</text>

  <!-- ================================================================ -->
  <!-- LEFT SIDEBAR: AUTONOMY                                           -->
  <!-- ================================================================ -->
  <!-- Brain / network icon -->
  <g transform="translate(80, 230)">
    <circle cx="20" cy="12" r="10" fill="none" stroke="#7C3AED" stroke-width="1.5"/>
    <!-- Neural connections -->
    <circle cx="14" cy="8" r="2" fill="#7C3AED" opacity="0.5"/>
    <circle cx="26" cy="8" r="2" fill="#7C3AED" opacity="0.5"/>
    <circle cx="20" cy="16" r="2" fill="#7C3AED" opacity="0.5"/>
    <line x1="14" y1="8" x2="26" y2="8" stroke="#7C3AED" stroke-width="0.8" opacity="0.4"/>
    <line x1="14" y1="8" x2="20" y2="16" stroke="#7C3AED" stroke-width="0.8" opacity="0.4"/>
    <line x1="26" y1="8" x2="20" y2="16" stroke="#7C3AED" stroke-width="0.8" opacity="0.4"/>
  </g>

  <rect x="30" y="225" width="190" height="56" rx="10" fill="#7C3AED" filter="url(#shadow)"/>
  <text x="125" y="248" font-family="'Segoe UI', Helvetica, Arial, sans-serif" font-size="13" font-weight="700" fill="#FFFFFF" text-anchor="middle">AUTONOMY</text>
  <text x="125" y="268" font-family="'Segoe UI', Helvetica, Arial, sans-serif" font-size="9" fill="rgba(255,255,255,0.85)" text-anchor="middle">sh-autonomy | ANASO Coordination</text>

  <!-- Autonomy dashed connections to all 5 levels -->
  <line x1="220" y1="240" x2="370" y2="81" stroke="#7C3AED" stroke-width="1.2" stroke-dasharray="6,3" marker-end="url(#arrow-violet)"/>
  <line x1="220" y1="245" x2="370" y2="177" stroke="#7C3AED" stroke-width="1.2" stroke-dasharray="6,3" marker-end="url(#arrow-violet)"/>
  <line x1="220" y1="253" x2="370" y2="273" stroke="#7C3AED" stroke-width="1.2" stroke-dasharray="6,3" marker-end="url(#arrow-violet)"/>
  <line x1="220" y1="260" x2="370" y2="369" stroke="#7C3AED" stroke-width="1.2" stroke-dasharray="6,3" marker-end="url(#arrow-violet)"/>
  <line x1="220" y1="268" x2="370" y2="465" stroke="#7C3AED" stroke-width="1.2" stroke-dasharray="6,3" marker-end="url(#arrow-violet)"/>

  <!-- ================================================================ -->
  <!-- RIGHT SIDEBAR: GOVERNANCE REPOS (3 stacked + Simulations)        -->
  <!-- ================================================================ -->
  <!-- Vertical governance bracket -->
  <line x1="680" y1="56" x2="680" y2="490" stroke="#64748B" stroke-width="1.5" stroke-dasharray="4,2"/>
  <text x="690" y="54" font-family="'Segoe UI', Helvetica, Arial, sans-serif" font-size="8" fill="#94A3B8" font-weight="600" letter-spacing="1">APPLIES TO ALL LAYERS</text>

  <!-- ARCHITECTURE (indigo) -->
  <rect x="710" y="70" width="250" height="80" rx="10" fill="#4F46E5" filter="url(#shadow)"/>
  <!-- Gear icon -->
  <circle cx="732" cy="96" r="8" fill="none" stroke="#A5B4FC" stroke-width="1.2"/>
  <circle cx="732" cy="96" r="3" fill="#A5B4FC"/>
  <text x="750" y="92" font-family="'Segoe UI', Helvetica, Arial, sans-serif" font-size="13" font-weight="700" fill="#FFFFFF">ARCHITECTURE</text>
  <text x="750" y="108" font-family="'Segoe UI', Helvetica, Arial, sans-serif" font-size="9" fill="rgba(255,255,255,0.85)">sh-architecture</text>
  <text x="750" y="124" font-family="'Segoe UI', Helvetica, Arial, sans-serif" font-size="9" fill="#A5B4FC">Requirements -- ICDs -- State Dictionary</text>
  <text x="750" y="140" font-family="'Segoe UI', Helvetica, Arial, sans-serif" font-size="8" fill="#C7D2FE">Master requirement source of truth</text>
  <line x1="680" y1="110" x2="710" y2="110" stroke="#64748B" stroke-width="1.5"/>

  <!-- VERIFICATION (sky blue) -->
  <rect x="710" y="168" width="250" height="80" rx="10" fill="#0284C7" filter="url(#shadow)"/>
  <!-- Checkmark in shield icon -->
  <rect x="724" y="192" width="14" height="16" rx="2" fill="none" stroke="#7DD3FC" stroke-width="1"/>
  <polyline points="727,200 730,203 736,196" fill="none" stroke="#7DD3FC" stroke-width="1.2"/>
  <text x="750" y="192" font-family="'Segoe UI', Helvetica, Arial, sans-serif" font-size="13" font-weight="700" fill="#FFFFFF">VERIFICATION</text>
  <text x="750" y="208" font-family="'Segoe UI', Helvetica, Arial, sans-serif" font-size="9" fill="rgba(255,255,255,0.85)">sh-verification</text>
  <text x="750" y="224" font-family="'Segoe UI', Helvetica, Arial, sans-serif" font-size="9" fill="#7DD3FC">Evidence -- Gates -- XRV Cases</text>
  <text x="750" y="238" font-family="'Segoe UI', Helvetica, Arial, sans-serif" font-size="8" fill="#BAE6FD">Traceability and gate assessment</text>
  <line x1="680" y1="208" x2="710" y2="208" stroke="#64748B" stroke-width="1.5"/>

  <!-- SECURITY (dark red) -->
  <rect x="710" y="266" width="250" height="80" rx="10" fill="#B91C1C" filter="url(#shadow)"/>
  <!-- Lock icon -->
  <rect x="724" y="296" width="14" height="10" rx="2" fill="none" stroke="#FCA5A5" stroke-width="1"/>
  <path d="M 727 296 L 727 292 Q 727 286, 731 286 Q 735 286, 735 292 L 735 296" fill="none" stroke="#FCA5A5" stroke-width="1"/>
  <text x="750" y="290" font-family="'Segoe UI', Helvetica, Arial, sans-serif" font-size="13" font-weight="700" fill="#FFFFFF">SECURITY</text>
  <text x="750" y="306" font-family="'Segoe UI', Helvetica, Arial, sans-serif" font-size="9" fill="rgba(255,255,255,0.85)">sh-security</text>
  <text x="750" y="322" font-family="'Segoe UI', Helvetica, Arial, sans-serif" font-size="9" fill="#FCA5A5">QS-C2 -- Trust Boundaries</text>
  <text x="750" y="336" font-family="'Segoe UI', Helvetica, Arial, sans-serif" font-size="8" fill="#FECACA">Threat models and security controls</text>
  <line x1="680" y1="306" x2="710" y2="306" stroke="#64748B" stroke-width="1.5"/>

  <!-- SIMULATIONS (below right sidebar) -->
  <rect x="710" y="364" width="250" height="70" rx="10" fill="#1D4ED8" filter="url(#shadow)"/>
  <!-- Waveform icon -->
  <path d="M 724 396 L 730 388 L 734 404 L 738 384 L 742 400 L 746 392 L 750 396" fill="none" stroke="#93C5FD" stroke-width="1.2"/>
  <text x="760" y="388" font-family="'Segoe UI', Helvetica, Arial, sans-serif" font-size="13" font-weight="700" fill="#FFFFFF">SIMULATIONS</text>
  <text x="760" y="404" font-family="'Segoe UI', Helvetica, Arial, sans-serif" font-size="9" fill="rgba(255,255,255,0.85)">sh-simulations</text>
  <text x="760" y="420" font-family="'Segoe UI', Helvetica, Arial, sans-serif" font-size="9" fill="#93C5FD">Scenarios -- Models -- Evidence</text>

  <!-- ================================================================ -->
  <!-- LEGEND BOX                                                       -->
  <!-- ================================================================ -->
  <rect x="988" y="70" width="190" height="130" rx="8" fill="#FFFFFF" stroke="#CBD5E1" stroke-width="1" filter="url(#shadow)"/>
  <text x="1083" y="90" font-family="'Segoe UI', Helvetica, Arial, sans-serif" font-size="10" font-weight="600" fill="#334155" text-anchor="middle">LEGEND</text>

  <line x1="1002" y1="104" x2="1032" y2="104" stroke="#64748B" stroke-width="2" marker-end="url(#arrow)"/>
  <text x="1042" y="108" font-family="'Segoe UI', Helvetica, Arial, sans-serif" font-size="9" fill="#64748B">Data / Power Flow</text>

  <line x1="1002" y1="124" x2="1032" y2="124" stroke="#7C3AED" stroke-width="1.5" stroke-dasharray="6,3" marker-end="url(#arrow-violet)"/>
  <text x="1042" y="128" font-family="'Segoe UI', Helvetica, Arial, sans-serif" font-size="9" fill="#64748B">Autonomy Scope</text>

  <line x1="1002" y1="144" x2="1032" y2="144" stroke="#64748B" stroke-width="1.5" stroke-dasharray="4,2"/>
  <text x="1042" y="148" font-family="'Segoe UI', Helvetica, Arial, sans-serif" font-size="9" fill="#64748B">Governance Scope</text>

  <rect x="1002" y="158" width="20" height="12" rx="3" fill="#F1F5F9" stroke="#E2E8F0" stroke-width="0.5"/>
  <text x="1042" y="168" font-family="'Segoe UI', Helvetica, Arial, sans-serif" font-size="9" fill="#64748B">ICD Reference</text>

  <rect x="1002" y="178" width="12" height="12" rx="2" fill="#D97706"/>
  <text x="1042" y="188" font-family="'Segoe UI', Helvetica, Arial, sans-serif" font-size="9" fill="#64748B">SBSP Component</text>

  <!-- ================================================================ -->
  <!-- BOTTOM BAR: TRUTH CHAIN FLOW                                     -->
  <!-- ================================================================ -->
  <rect x="20" y="505" width="1160" height="42" rx="8" fill="#1E293B" filter="url(#shadow)"/>

  <!-- COLLECT -->
  <rect x="40" y="511" width="210" height="30" rx="6" fill="#D97706"/>
  <text x="145" y="530" font-family="'Segoe UI', Helvetica, Arial, sans-serif" font-size="11" font-weight="700" fill="#FFFFFF" text-anchor="middle">COLLECT (SOL)</text>

  <text x="260" y="530" font-family="'Segoe UI', Helvetica, Arial, sans-serif" font-size="14" fill="#64748B" text-anchor="middle">&#8594;</text>

  <!-- CONVERT -->
  <rect x="280" y="511" width="210" height="30" rx="6" fill="#DC2626"/>
  <text x="385" y="530" font-family="'Segoe UI', Helvetica, Arial, sans-serif" font-size="11" font-weight="700" fill="#FFFFFF" text-anchor="middle">CONVERT (BMC)</text>

  <text x="500" y="530" font-family="'Segoe UI', Helvetica, Arial, sans-serif" font-size="14" fill="#64748B" text-anchor="middle">&#8594;</text>

  <!-- TRANSMIT -->
  <rect x="520" y="511" width="210" height="30" rx="6" fill="#0D9488"/>
  <text x="625" y="530" font-family="'Segoe UI', Helvetica, Arial, sans-serif" font-size="11" font-weight="700" fill="#FFFFFF" text-anchor="middle">TRANSMIT (GND)</text>

  <text x="740" y="530" font-family="'Segoe UI', Helvetica, Arial, sans-serif" font-size="14" fill="#64748B" text-anchor="middle">&#8594;</text>

  <!-- DELIVER -->
  <rect x="760" y="511" width="210" height="30" rx="6" fill="#059669"/>
  <text x="865" y="530" font-family="'Segoe UI', Helvetica, Arial, sans-serif" font-size="11" font-weight="700" fill="#FFFFFF" text-anchor="middle">DELIVER (MKT)</text>

  <!-- Governance label on right side of bottom bar -->
  <rect x="1000" y="511" width="160" height="30" rx="6" fill="#4F46E5" opacity="0.6"/>
  <text x="1080" y="530" font-family="'Segoe UI', Helvetica, Arial, sans-serif" font-size="10" font-weight="600" fill="#FFFFFF" text-anchor="middle">GOVERNED</text>

  <!-- ================================================================ -->
  <!-- REPO COUNT BADGE                                                 -->
  <!-- ================================================================ -->
  <rect x="988" y="460" width="170" height="30" rx="15" fill="#EFF6FF" stroke="#BFDBFE" stroke-width="1" filter="url(#shadow)"/>
  <text x="1073" y="480" font-family="'Segoe UI', Helvetica, Arial, sans-serif" font-size="10" font-weight="600" fill="#1D4ED8" text-anchor="middle">10 Repositories | 1 Truth Chain</text>

  <!-- Footer -->
  <text x="600" y="570" font-family="'Segoe UI', Helvetica, Arial, sans-serif" font-size="10" font-weight="600" fill="#334155" text-anchor="middle">Sunlight &#8594; Electricity &#8594; Microwave &#8594; Rectenna &#8594; Grid &#8594; Market</text>
  <text x="1172" y="640" font-family="'Segoe UI', Helvetica, Arial, sans-serif" font-size="9" fill="#94A3B8" text-anchor="end">Shine Harvest SBSP Program | Architecture Baseline v0.2 | PROPRIETARY</text>
</svg>